<?xml version="1.0" encoding="UTF-8"?>
<svg xmlns="http://www.w3.org/2000/svg" viewBox="0 0 295.62 80.00" width="295.62" height="80.00" role="img" aria-label="Sonos">
  <title>Sonos Mac Classic black wordmark</title>
  <g fill="#000000" fill-rule="nonzero">
    <path d="M4.0 25.984Q4.0 28.576 5.776 31.312Q7.552 34.048 10.192 36.832Q12.832 39.616 15.952 42.352000000000004Q19.072 45.088 21.712 47.584Q24.352 50.08 26.128 52.336Q27.904 54.592 27.904 56.32V68.032H20.608Q16.768 68.032 14.416 65.728Q12.064 63.424 12.064 59.775999999999996H4.0Q4.0 63.135999999999996 5.296 66.064Q6.5920000000000005 68.992 8.848 71.2Q11.104000000000001 73.408 14.128 74.70400000000001Q17.152 76.0 20.608 76.0H27.328Q30.976 76.0 34.0 74.70400000000001Q37.024 73.408 39.184 71.152Q41.344 68.896 42.544 65.968Q43.744 63.04 43.744 59.775999999999996V53.92Q43.744 51.04 41.968 48.016000000000005Q40.192 44.992000000000004 37.552 42.064Q34.912 39.135999999999996 31.84 36.352Q28.768 33.568 26.128 31.119999999999997Q23.488 28.671999999999997 21.712 26.656Q19.936 24.64 19.936 23.199999999999996V11.872H26.272000000000002Q30.880000000000003 11.872 33.42400000000001 14.032Q35.968 16.192 35.968 20.031999999999996H43.84Q43.84 16.768 42.544 13.839999999999996Q41.248 10.911999999999992 38.992000000000004 8.751999999999995Q36.736000000000004 6.591999999999999 33.760000000000005 5.295999999999999Q30.784 4.0 27.424 4.0H20.608Q17.152 4.0 14.128 5.2479999999999976Q11.104000000000001 6.495999999999995 8.848 8.703999999999994Q6.5920000000000005 10.911999999999992 5.296 13.839999999999996Q4.0 16.768 4.0 20.223999999999997Z"/>
    <path d="M76.096 76.0H91.26400000000001Q94.912 76.0 97.936 74.70400000000001Q100.96000000000001 73.408 103.12 71.2Q105.28 68.992 106.48 65.968Q107.68 62.944 107.68 59.488V36.448Q107.68 33.184 106.48 30.208Q105.28 27.232 103.12 24.976Q100.96000000000001 22.72 97.936 21.375999999999998Q94.912 20.031999999999996 91.26400000000001 20.031999999999996H76.096Q72.64 20.031999999999996 69.664 21.375999999999998Q66.688 22.72 64.48 24.976Q62.272000000000006 27.232 61.024 30.208Q59.776 33.184 59.776 36.448V59.488Q59.776 62.944 60.976 65.968Q62.176 68.992 64.33600000000001 71.2Q66.49600000000001 73.408 69.47200000000001 74.70400000000001Q72.44800000000001 76.0 76.096 76.0ZM91.744 67.936H75.712V28.0H91.744Z"/>
    <path d="M155.10399999999998 20.031999999999996H123.80799999999999V76.0H139.744V28.0H155.776V76.0H171.712V36.448Q171.712 33.376 170.416 30.4Q169.12 27.424 166.864 25.119999999999997Q164.608 22.815999999999995 161.584 21.423999999999996Q158.56 20.031999999999996 155.10399999999998 20.031999999999996Z"/>
    <path d="M204.16000000000003 76.0H219.328Q222.976 76.0 226.0 74.70400000000001Q229.024 73.408 231.184 71.2Q233.344 68.992 234.544 65.968Q235.74400000000003 62.944 235.74400000000003 59.488V36.448Q235.74400000000003 33.184 234.544 30.208Q233.344 27.232 231.184 24.976Q229.024 22.72 226.0 21.375999999999998Q222.976 20.031999999999996 219.328 20.031999999999996H204.16000000000003Q200.704 20.031999999999996 197.728 21.375999999999998Q194.752 22.72 192.544 24.976Q190.336 27.232 189.08800000000002 30.208Q187.84 33.184 187.84 36.448V59.488Q187.84 62.944 189.04000000000002 65.968Q190.24 68.992 192.4 71.2Q194.56 73.408 197.536 74.70400000000001Q200.512 76.0 204.16000000000003 76.0ZM219.80800000000002 67.936H203.776V28.0H219.80800000000002Z"/>
    <path d="M251.87199999999999 39.808 275.776 61.6V68.032H268.48Q264.64 68.032 262.288 65.824Q259.936 63.616 259.936 59.968H251.87199999999999Q251.87199999999999 63.328 253.168 66.208Q254.464 69.088 256.72 71.29599999999999Q258.976 73.504 262.0 74.75200000000001Q265.024 76.0 268.48 76.0H275.2Q278.848 76.0 281.872 74.70400000000001Q284.896 73.408 287.05600000000004 71.152Q289.216 68.896 290.416 65.968Q291.616 63.04 291.616 59.775999999999996V53.727999999999994L267.808 33.376V28.0H275.68Q279.328 28.0 281.53599999999994 30.16Q283.74399999999997 32.32 283.74399999999997 35.967999999999996H291.616Q291.616 32.704 290.32 29.823999999999998Q289.024 26.943999999999996 286.76800000000003 24.784Q284.512 22.624000000000002 281.536 21.328Q278.56 20.031999999999996 275.2 20.031999999999996H268.48Q265.024 20.031999999999996 262.0 20.991999999999997Q258.976 21.951999999999998 256.72 23.823999999999998Q254.464 25.695999999999998 253.168 28.336Q251.87199999999999 30.976 251.87199999999999 34.24Z"/>
  </g>
</svg>