<?xml version="1.0" encoding="UTF-8" standalone="no"?>
<svg xmlns="http://www.w3.org/2000/svg" width="185" height="123" viewBox="0 0 185 123" role="img" aria-label="SONOS wordmark with tagline">
  <title>SONOS wordmark with tagline</title>
  <g fill="#000000" fill-rule="evenodd">
    <path d="M 25.640 38.716 Q 25.271 39.323 24.885 39.602 Q 24.507 39.873 23.900 39.873 Q 23.325 39.873 22.652 39.471 Q 21.987 39.061 21.093 38.593 Q 20.198 38.117 19.041 37.714 Q 17.891 37.304 16.340 37.304 Q 13.607 37.304 12.236 38.527 Q 10.873 39.742 10.873 41.712 Q 10.873 42.976 11.620 43.805 Q 12.375 44.626 13.590 45.233 Q 14.813 45.841 16.365 46.317 Q 17.916 46.785 19.541 47.351 Q 21.175 47.909 22.718 48.673 Q 24.269 49.436 25.492 50.593 Q 26.715 51.751 27.462 53.417 Q 28.209 55.083 28.209 57.472 Q 28.209 60.074 27.298 62.348 Q 26.395 64.622 24.688 66.313 Q 22.981 68.003 20.469 68.980 Q 17.965 69.949 14.789 69.949 Q 12.975 69.949 11.177 69.579 Q 9.379 69.218 7.705 68.562 Q 6.039 67.905 4.569 66.986 Q 3.100 66.066 2.000 64.933 L 4.307 61.207 Q 4.594 60.780 5.070 60.509 Q 5.546 60.230 6.071 60.230 Q 6.777 60.230 7.565 60.755 Q 8.353 61.281 9.379 61.913 Q 10.405 62.545 11.752 63.070 Q 13.106 63.596 15.002 63.596 Q 17.760 63.596 19.270 62.340 Q 20.781 61.076 20.781 58.580 Q 20.781 57.136 20.026 56.241 Q 19.279 55.346 18.072 54.747 Q 16.865 54.139 15.314 53.704 Q 13.763 53.269 12.129 52.744 Q 10.504 52.219 8.953 51.488 Q 7.409 50.749 6.194 49.543 Q 4.988 48.336 4.241 46.547 Q 3.494 44.757 3.494 42.106 Q 3.494 39.980 4.331 37.985 Q 5.177 35.991 6.802 34.439 Q 8.435 32.888 10.808 31.944 Q 13.188 31.000 16.258 31.000 Q 19.697 31.000 22.628 32.067 Q 25.558 33.126 27.577 35.014 L 25.640 38.716 Z M 70.765 50.462 Q 70.765 54.640 69.353 58.211 Q 67.950 61.781 65.388 64.384 Q 62.827 66.986 59.232 68.471 Q 55.637 69.949 51.245 69.949 Q 46.862 69.949 43.259 68.471 Q 39.663 66.986 37.086 64.384 Q 34.517 61.781 33.105 58.211 Q 31.701 54.640 31.701 50.462 Q 31.701 46.284 33.105 42.730 Q 34.517 39.167 37.086 36.565 Q 39.663 33.963 43.259 32.486 Q 46.862 31.000 51.245 31.000 Q 55.637 31.000 59.232 32.486 Q 62.827 33.963 65.388 36.582 Q 67.950 39.192 69.353 42.754 Q 70.765 46.309 70.765 50.462 Z M 62.696 50.462 Q 62.696 47.466 61.908 45.094 Q 61.120 42.713 59.634 41.047 Q 58.157 39.373 56.039 38.494 Q 53.930 37.616 51.245 37.616 Q 48.569 37.616 46.435 38.494 Q 44.309 39.373 42.824 41.047 Q 41.346 42.713 40.558 45.094 Q 39.770 47.466 39.770 50.462 Q 39.770 53.483 40.558 55.863 Q 41.346 58.235 42.824 59.894 Q 44.309 61.543 46.435 62.430 Q 48.569 63.308 51.245 63.308 Q 53.930 63.308 56.039 62.430 Q 58.157 61.543 59.634 59.894 Q 61.120 58.235 61.908 55.863 Q 62.696 53.483 62.696 50.462 Z M 109.192 31.419 L 109.192 69.530 L 105.120 69.530 Q 104.201 69.530 103.569 69.226 Q 102.937 68.923 102.338 68.192 L 83.344 44.027 Q 83.426 44.946 83.458 45.841 Q 83.499 46.727 83.499 47.491 L 83.499 69.530 L 76.539 69.530 L 76.539 31.419 L 80.692 31.419 Q 81.193 31.419 81.546 31.460 Q 81.899 31.493 82.186 31.640 Q 82.482 31.788 82.744 32.026 Q 83.007 32.256 83.319 32.650 L 102.444 56.922 Q 102.338 55.921 102.280 54.993 Q 102.231 54.057 102.231 53.220 L 102.231 31.419 L 109.192 31.419 Z M 154.005 50.462 Q 154.005 54.640 152.593 58.211 Q 151.189 61.781 148.628 64.384 Q 146.067 66.986 142.472 68.471 Q 138.877 69.949 134.485 69.949 Q 130.102 69.949 126.498 68.471 Q 122.903 66.986 120.326 64.384 Q 117.756 61.781 116.345 58.211 Q 114.941 54.640 114.941 50.462 Q 114.941 46.284 116.345 42.730 Q 117.756 39.167 120.326 36.565 Q 122.903 33.963 126.498 32.486 Q 130.102 31.000 134.485 31.000 Q 138.877 31.000 142.472 32.486 Q 146.067 33.963 148.628 36.582 Q 151.189 39.192 152.593 42.754 Q 154.005 46.309 154.005 50.462 Z M 145.936 50.462 Q 145.936 47.466 145.148 45.094 Q 144.360 42.713 142.874 41.047 Q 141.397 39.373 139.279 38.494 Q 137.169 37.616 134.485 37.616 Q 131.809 37.616 129.675 38.494 Q 127.549 39.373 126.063 41.047 Q 124.586 42.713 123.798 45.094 Q 123.010 47.466 123.010 50.462 Q 123.010 53.483 123.798 55.863 Q 124.586 58.235 126.063 59.894 Q 127.549 61.543 129.675 62.430 Q 131.809 63.308 134.485 63.308 Q 137.169 63.308 139.279 62.430 Q 141.397 61.543 142.874 59.894 Q 144.360 58.235 145.148 55.863 Q 145.936 53.483 145.936 50.462 Z M 180.431 38.716 Q 180.061 39.323 179.676 39.602 Q 179.298 39.873 178.691 39.873 Q 178.116 39.873 177.443 39.471 Q 176.778 39.061 175.883 38.593 Q 174.989 38.117 173.831 37.714 Q 172.682 37.304 171.131 37.304 Q 168.397 37.304 167.026 38.527 Q 165.664 39.742 165.664 41.712 Q 165.664 42.976 166.411 43.805 Q 167.166 44.626 168.381 45.233 Q 169.604 45.841 171.155 46.317 Q 172.707 46.785 174.332 47.351 Q 175.965 47.909 177.509 48.673 Q 179.060 49.436 180.283 50.593 Q 181.506 51.751 182.253 53.417 Q 183.000 55.083 183.000 57.472 Q 183.000 60.074 182.089 62.348 Q 181.186 64.622 179.479 66.313 Q 177.771 68.003 175.259 68.980 Q 172.756 69.949 169.579 69.949 Q 167.765 69.949 165.968 69.579 Q 164.170 69.218 162.495 68.562 Q 160.829 67.905 159.360 66.986 Q 157.891 66.066 156.791 64.933 L 159.097 61.207 Q 159.384 60.780 159.861 60.509 Q 160.337 60.230 160.862 60.230 Q 161.568 60.230 162.356 60.755 Q 163.144 61.281 164.170 61.913 Q 165.196 62.545 166.542 63.070 Q 167.897 63.596 169.793 63.596 Q 172.551 63.596 174.061 62.340 Q 175.571 61.076 175.571 58.580 Q 175.571 57.136 174.816 56.241 Q 174.069 55.346 172.863 54.747 Q 171.656 54.139 170.105 53.704 Q 168.553 53.269 166.920 52.744 Q 165.294 52.219 163.743 51.488 Q 162.200 50.749 160.985 49.543 Q 159.778 48.336 159.031 46.547 Q 158.285 44.757 158.285 42.106 Q 158.285 39.980 159.122 37.985 Q 159.967 35.991 161.593 34.439 Q 163.226 32.888 165.598 31.944 Q 167.979 31.000 171.049 31.000 Q 174.488 31.000 177.418 32.067 Q 180.349 33.126 182.368 35.014 L 180.431 38.716 Z"/>
    <path d="M 33.253 77.545 L 30.673 77.545 L 30.673 84.796 L 29.080 84.796 L 29.080 77.545 L 26.500 77.545 L 26.500 76.237 L 33.253 76.237 L 33.253 77.545 Z M 35.610 79.374 Q 35.965 79.043 36.391 78.836 Q 36.818 78.629 37.391 78.629 Q 37.889 78.629 38.274 78.797 Q 38.659 78.965 38.916 79.270 Q 39.173 79.576 39.306 79.999 Q 39.439 80.421 39.439 80.930 L 39.439 84.796 L 37.978 84.796 L 37.978 80.930 Q 37.978 80.375 37.723 80.069 Q 37.469 79.764 36.947 79.764 Q 36.568 79.764 36.237 79.936 Q 35.906 80.108 35.610 80.404 L 35.610 84.796 L 34.147 84.796 L 34.147 76.000 L 35.610 76.000 L 35.610 79.374 Z M 44.738 81.061 Q 44.738 80.776 44.657 80.525 Q 44.577 80.273 44.416 80.084 Q 44.257 79.894 44.011 79.785 Q 43.767 79.675 43.441 79.675 Q 42.807 79.675 42.442 80.036 Q 42.080 80.397 41.978 81.061 L 44.738 81.061 Z M 41.949 81.943 Q 41.985 82.409 42.115 82.750 Q 42.244 83.090 42.457 83.312 Q 42.672 83.534 42.964 83.645 Q 43.258 83.754 43.613 83.754 Q 43.968 83.754 44.226 83.671 Q 44.483 83.588 44.675 83.488 Q 44.867 83.386 45.012 83.305 Q 45.158 83.221 45.293 83.221 Q 45.478 83.221 45.567 83.357 L 45.987 83.889 Q 45.744 84.174 45.441 84.366 Q 45.139 84.559 44.810 84.675 Q 44.483 84.790 44.142 84.836 Q 43.802 84.884 43.482 84.884 Q 42.849 84.884 42.304 84.675 Q 41.760 84.465 41.357 84.054 Q 40.955 83.641 40.724 83.035 Q 40.493 82.428 40.493 81.629 Q 40.493 81.007 40.694 80.460 Q 40.896 79.912 41.271 79.507 Q 41.647 79.102 42.189 78.865 Q 42.731 78.629 43.412 78.629 Q 43.985 78.629 44.470 78.812 Q 44.956 78.995 45.306 79.348 Q 45.655 79.700 45.853 80.212 Q 46.051 80.722 46.051 81.381 Q 46.051 81.712 45.979 81.829 Q 45.909 81.943 45.707 81.943 L 41.949 81.943 Z M 57.470 76.237 L 57.470 84.796 L 55.871 84.796 L 55.871 81.055 L 51.852 81.055 L 51.852 84.796 L 50.254 84.796 L 50.254 76.237 L 51.852 76.237 L 51.852 79.918 L 55.871 79.918 L 55.871 76.237 L 57.470 76.237 Z M 61.832 78.629 Q 62.507 78.629 63.060 78.847 Q 63.613 79.065 64.007 79.468 Q 64.401 79.872 64.614 80.452 Q 64.826 81.031 64.826 81.747 Q 64.826 82.469 64.614 83.049 Q 64.401 83.630 64.007 84.039 Q 63.613 84.446 63.060 84.666 Q 62.507 84.884 61.832 84.884 Q 61.151 84.884 60.594 84.666 Q 60.039 84.446 59.645 84.039 Q 59.251 83.630 59.035 83.049 Q 58.818 82.469 58.818 81.747 Q 58.818 81.031 59.035 80.452 Q 59.251 79.872 59.645 79.468 Q 60.039 79.065 60.594 78.847 Q 61.151 78.629 61.832 78.629 Z M 61.832 83.760 Q 62.590 83.760 62.953 83.251 Q 63.317 82.742 63.317 81.758 Q 63.317 80.776 62.953 80.262 Q 62.590 79.746 61.832 79.746 Q 61.062 79.746 60.692 80.264 Q 60.322 80.782 60.322 81.758 Q 60.322 82.735 60.692 83.247 Q 61.062 83.760 61.832 83.760 Z M 65.945 84.796 L 65.945 78.723 L 66.840 78.723 Q 67.123 78.723 67.212 78.989 L 67.307 79.439 Q 67.467 79.261 67.641 79.113 Q 67.817 78.965 68.015 78.860 Q 68.213 78.752 68.440 78.691 Q 68.668 78.629 68.942 78.629 Q 69.515 78.629 69.885 78.939 Q 70.255 79.250 70.438 79.764 Q 70.581 79.463 70.793 79.246 Q 71.006 79.030 71.261 78.895 Q 71.517 78.758 71.803 78.693 Q 72.090 78.629 72.380 78.629 Q 72.884 78.629 73.274 78.782 Q 73.664 78.936 73.931 79.232 Q 74.197 79.528 74.336 79.955 Q 74.476 80.380 74.476 80.930 L 74.476 84.796 L 73.013 84.796 L 73.013 80.930 Q 73.013 80.351 72.758 80.058 Q 72.504 79.764 72.012 79.764 Q 71.789 79.764 71.596 79.842 Q 71.404 79.918 71.258 80.064 Q 71.113 80.208 71.030 80.428 Q 70.947 80.647 70.947 80.930 L 70.947 84.796 L 69.480 84.796 L 69.480 80.930 Q 69.480 80.321 69.234 80.044 Q 68.988 79.764 68.514 79.764 Q 68.194 79.764 67.919 79.922 Q 67.645 80.079 67.408 80.351 L 67.408 84.796 L 65.945 84.796 Z M 79.774 81.061 Q 79.774 80.776 79.693 80.525 Q 79.613 80.273 79.452 80.084 Q 79.293 79.894 79.047 79.785 Q 78.803 79.675 78.477 79.675 Q 77.843 79.675 77.478 80.036 Q 77.116 80.397 77.014 81.061 L 79.774 81.061 Z M 76.985 81.943 Q 77.022 82.409 77.151 82.750 Q 77.281 83.090 77.493 83.312 Q 77.708 83.534 78.000 83.645 Q 78.294 83.754 78.649 83.754 Q 79.004 83.754 79.262 83.671 Q 79.519 83.588 79.711 83.488 Q 79.903 83.386 80.048 83.305 Q 80.194 83.221 80.329 83.221 Q 80.514 83.221 80.603 83.357 L 81.023 83.889 Q 80.780 84.174 80.477 84.366 Q 80.175 84.559 79.846 84.675 Q 79.519 84.790 79.178 84.836 Q 78.838 84.884 78.518 84.884 Q 77.885 84.884 77.340 84.675 Q 76.796 84.465 76.393 84.054 Q 75.991 83.641 75.760 83.035 Q 75.529 82.428 75.529 81.629 Q 75.529 81.007 75.730 80.460 Q 75.932 79.912 76.308 79.507 Q 76.683 79.102 77.225 78.865 Q 77.767 78.629 78.448 78.629 Q 79.021 78.629 79.506 78.812 Q 79.992 78.995 80.342 79.348 Q 80.691 79.700 80.889 80.212 Q 81.087 80.722 81.087 81.381 Q 81.087 81.712 81.015 81.829 Q 80.945 81.943 80.743 81.943 L 76.985 81.943 Z M 89.847 77.792 Q 89.777 77.918 89.696 77.974 Q 89.616 78.029 89.498 78.029 Q 89.374 78.029 89.228 77.939 Q 89.083 77.846 88.882 77.735 Q 88.682 77.622 88.412 77.530 Q 88.144 77.437 87.776 77.437 Q 87.445 77.437 87.195 77.519 Q 86.947 77.598 86.779 77.741 Q 86.610 77.881 86.527 78.081 Q 86.444 78.279 86.444 78.516 Q 86.444 78.817 86.612 79.019 Q 86.782 79.220 87.060 79.363 Q 87.337 79.503 87.692 79.616 Q 88.048 79.729 88.421 79.857 Q 88.795 79.983 89.150 80.153 Q 89.505 80.321 89.783 80.578 Q 90.060 80.835 90.228 81.209 Q 90.399 81.581 90.399 82.113 Q 90.399 82.694 90.199 83.201 Q 90.001 83.706 89.620 84.083 Q 89.239 84.459 88.688 84.675 Q 88.136 84.890 87.426 84.890 Q 87.019 84.890 86.621 84.810 Q 86.226 84.731 85.861 84.583 Q 85.497 84.435 85.177 84.228 Q 84.859 84.021 84.609 83.765 L 85.077 83.001 Q 85.136 82.920 85.230 82.864 Q 85.325 82.807 85.432 82.807 Q 85.580 82.807 85.752 82.929 Q 85.924 83.049 86.161 83.197 Q 86.398 83.345 86.714 83.468 Q 87.030 83.588 87.474 83.588 Q 88.155 83.588 88.527 83.266 Q 88.900 82.942 88.900 82.339 Q 88.900 82.002 88.732 81.790 Q 88.564 81.575 88.284 81.431 Q 88.007 81.285 87.652 81.185 Q 87.297 81.085 86.929 80.967 Q 86.562 80.848 86.207 80.682 Q 85.852 80.515 85.573 80.249 Q 85.295 79.983 85.127 79.583 Q 84.959 79.183 84.959 78.599 Q 84.959 78.131 85.145 77.687 Q 85.332 77.243 85.687 76.901 Q 86.042 76.557 86.562 76.350 Q 87.084 76.142 87.759 76.142 Q 88.516 76.142 89.154 76.379 Q 89.794 76.616 90.245 77.041 L 89.847 77.792 Z M 94.240 78.629 Q 94.915 78.629 95.468 78.847 Q 96.021 79.065 96.415 79.468 Q 96.809 79.872 97.022 80.452 Q 97.234 81.031 97.234 81.747 Q 97.234 82.469 97.022 83.049 Q 96.809 83.630 96.415 84.039 Q 96.021 84.446 95.468 84.666 Q 94.915 84.884 94.240 84.884 Q 93.559 84.884 93.002 84.666 Q 92.447 84.446 92.053 84.039 Q 91.659 83.630 91.443 83.049 Q 91.226 82.469 91.226 81.747 Q 91.226 81.031 91.443 80.452 Q 91.659 79.872 92.053 79.468 Q 92.447 79.065 93.002 78.847 Q 93.559 78.629 94.240 78.629 Z M 94.240 83.760 Q 94.998 83.760 95.360 83.251 Q 95.725 82.742 95.725 81.758 Q 95.725 80.776 95.360 80.262 Q 94.998 79.746 94.240 79.746 Q 93.470 79.746 93.100 80.264 Q 92.730 80.782 92.730 81.758 Q 92.730 82.735 93.100 83.247 Q 93.470 83.760 94.240 83.760 Z M 103.586 78.723 L 103.586 84.796 L 102.693 84.796 Q 102.402 84.796 102.326 84.529 L 102.225 84.045 Q 101.853 84.422 101.401 84.657 Q 100.952 84.890 100.343 84.890 Q 99.846 84.890 99.463 84.722 Q 99.082 84.553 98.821 84.246 Q 98.560 83.937 98.427 83.514 Q 98.294 83.090 98.294 82.581 L 98.294 78.723 L 99.757 78.723 L 99.757 82.581 Q 99.757 83.138 100.014 83.443 Q 100.271 83.749 100.787 83.749 Q 101.165 83.749 101.496 83.580 Q 101.829 83.410 102.125 83.114 L 102.125 78.723 L 103.586 78.723 Z M 106.399 79.468 Q 106.582 79.285 106.785 79.128 Q 106.991 78.971 107.218 78.862 Q 107.446 78.752 107.707 78.691 Q 107.967 78.629 108.274 78.629 Q 108.772 78.629 109.157 78.797 Q 109.542 78.965 109.799 79.270 Q 110.056 79.576 110.189 79.999 Q 110.322 80.421 110.322 80.930 L 110.322 84.796 L 108.861 84.796 L 108.861 80.930 Q 108.861 80.375 108.606 80.069 Q 108.352 79.764 107.830 79.764 Q 107.451 79.764 107.120 79.936 Q 106.789 80.108 106.493 80.404 L 106.493 84.796 L 105.030 84.796 L 105.030 78.723 L 105.925 78.723 Q 106.208 78.723 106.297 78.989 L 106.399 79.468 Z M 115.519 80.273 Q 115.271 79.971 114.977 79.848 Q 114.685 79.724 114.348 79.724 Q 114.015 79.724 113.749 79.848 Q 113.483 79.971 113.294 80.223 Q 113.105 80.475 113.004 80.863 Q 112.904 81.250 112.904 81.777 Q 112.904 82.310 112.989 82.680 Q 113.076 83.049 113.235 83.284 Q 113.394 83.517 113.625 83.621 Q 113.856 83.725 114.141 83.725 Q 114.596 83.725 114.916 83.536 Q 115.236 83.345 115.519 82.996 L 115.519 80.273 Z M 116.982 76.000 L 116.982 84.796 L 116.087 84.796 Q 115.799 84.796 115.721 84.529 L 115.597 83.943 Q 115.229 84.363 114.752 84.624 Q 114.276 84.884 113.644 84.884 Q 113.146 84.884 112.732 84.677 Q 112.317 84.470 112.018 84.076 Q 111.720 83.682 111.557 83.103 Q 111.394 82.522 111.394 81.777 Q 111.394 81.102 111.577 80.523 Q 111.761 79.942 112.103 79.516 Q 112.447 79.089 112.926 78.850 Q 113.407 78.610 114.004 78.610 Q 114.513 78.610 114.874 78.771 Q 115.236 78.930 115.519 79.202 L 115.519 76.000 L 116.982 76.000 Z M 126.091 77.792 Q 126.021 77.918 125.939 77.974 Q 125.860 78.029 125.741 78.029 Q 125.617 78.029 125.471 77.939 Q 125.327 77.846 125.125 77.735 Q 124.926 77.622 124.656 77.530 Q 124.387 77.437 124.019 77.437 Q 123.688 77.437 123.438 77.519 Q 123.191 77.598 123.022 77.741 Q 122.854 77.881 122.771 78.081 Q 122.687 78.279 122.687 78.516 Q 122.687 78.817 122.856 79.019 Q 123.026 79.220 123.303 79.363 Q 123.581 79.503 123.936 79.616 Q 124.291 79.729 124.665 79.857 Q 125.038 79.983 125.394 80.153 Q 125.749 80.321 126.026 80.578 Q 126.304 80.835 126.472 81.209 Q 126.642 81.581 126.642 82.113 Q 126.642 82.694 126.442 83.201 Q 126.245 83.706 125.863 84.083 Q 125.482 84.459 124.931 84.675 Q 124.380 84.890 123.670 84.890 Q 123.263 84.890 122.865 84.810 Q 122.469 84.731 122.105 84.583 Q 121.740 84.435 121.420 84.228 Q 121.102 84.021 120.852 83.765 L 121.320 83.001 Q 121.380 82.920 121.474 82.864 Q 121.568 82.807 121.676 82.807 Q 121.824 82.807 121.996 82.929 Q 122.168 83.049 122.404 83.197 Q 122.641 83.345 122.958 83.468 Q 123.274 83.588 123.718 83.588 Q 124.398 83.588 124.770 83.266 Q 125.144 82.942 125.144 82.339 Q 125.144 82.002 124.976 81.790 Q 124.807 81.575 124.528 81.431 Q 124.250 81.285 123.895 81.185 Q 123.540 81.085 123.172 80.967 Q 122.806 80.848 122.451 80.682 Q 122.096 80.515 121.816 80.249 Q 121.539 79.983 121.370 79.583 Q 121.202 79.183 121.202 78.599 Q 121.202 78.131 121.389 77.687 Q 121.576 77.243 121.931 76.901 Q 122.286 76.557 122.806 76.350 Q 123.327 76.142 124.003 76.142 Q 124.759 76.142 125.397 76.379 Q 126.037 76.616 126.489 77.041 L 126.091 77.792 Z M 133.313 78.723 L 130.004 86.464 Q 129.939 86.620 129.836 86.699 Q 129.732 86.779 129.519 86.779 L 128.430 86.779 L 129.566 84.341 L 127.109 78.723 L 128.395 78.723 Q 128.565 78.723 128.663 78.806 Q 128.761 78.887 128.809 78.995 L 130.098 82.143 Q 130.163 82.304 130.207 82.465 Q 130.252 82.624 130.294 82.789 Q 130.348 82.624 130.400 82.461 Q 130.453 82.298 130.518 82.138 L 131.739 78.995 Q 131.785 78.876 131.894 78.801 Q 132.005 78.723 132.140 78.723 L 133.313 78.723 Z M 137.747 79.907 Q 137.688 80.001 137.621 80.040 Q 137.557 80.079 137.457 80.079 Q 137.349 80.079 137.227 80.020 Q 137.107 79.960 136.946 79.886 Q 136.787 79.812 136.582 79.753 Q 136.378 79.694 136.101 79.694 Q 135.668 79.694 135.422 79.877 Q 135.178 80.060 135.178 80.356 Q 135.178 80.552 135.304 80.685 Q 135.431 80.819 135.642 80.919 Q 135.853 81.018 136.119 81.100 Q 136.386 81.179 136.659 81.274 Q 136.935 81.368 137.201 81.490 Q 137.468 81.610 137.677 81.797 Q 137.888 81.984 138.015 82.245 Q 138.143 82.506 138.143 82.872 Q 138.143 83.310 137.986 83.680 Q 137.829 84.050 137.521 84.320 Q 137.214 84.588 136.761 84.740 Q 136.308 84.890 135.716 84.890 Q 135.402 84.890 135.102 84.833 Q 134.804 84.777 134.529 84.677 Q 134.255 84.577 134.020 84.440 Q 133.787 84.304 133.609 84.145 L 133.946 83.588 Q 134.011 83.488 134.099 83.434 Q 134.188 83.381 134.325 83.381 Q 134.462 83.381 134.582 83.458 Q 134.704 83.534 134.863 83.623 Q 135.024 83.712 135.239 83.789 Q 135.455 83.867 135.786 83.867 Q 136.047 83.867 136.234 83.804 Q 136.421 83.741 136.541 83.641 Q 136.663 83.541 136.719 83.408 Q 136.776 83.275 136.776 83.133 Q 136.776 82.920 136.648 82.783 Q 136.521 82.646 136.310 82.546 Q 136.101 82.446 135.831 82.367 Q 135.563 82.286 135.281 82.191 Q 135.000 82.097 134.730 81.969 Q 134.462 81.842 134.251 81.647 Q 134.040 81.451 133.913 81.168 Q 133.787 80.883 133.787 80.480 Q 133.787 80.108 133.935 79.772 Q 134.083 79.433 134.369 79.182 Q 134.656 78.930 135.085 78.780 Q 135.514 78.629 136.077 78.629 Q 136.704 78.629 137.218 78.836 Q 137.734 79.043 138.078 79.380 L 137.747 79.907 Z M 141.269 84.890 Q 140.475 84.890 140.052 84.444 Q 139.628 83.997 139.628 83.209 L 139.628 79.818 L 139.006 79.818 Q 138.888 79.818 138.805 79.742 Q 138.723 79.664 138.723 79.509 L 138.723 78.930 L 139.700 78.769 L 140.007 77.112 Q 140.037 76.993 140.120 76.929 Q 140.203 76.864 140.333 76.864 L 141.091 76.864 L 141.091 78.776 L 142.713 78.776 L 142.713 79.818 L 141.091 79.818 L 141.091 83.109 Q 141.091 83.394 141.230 83.553 Q 141.369 83.712 141.611 83.712 Q 141.748 83.712 141.838 83.680 Q 141.931 83.647 141.999 83.612 Q 142.068 83.577 142.120 83.545 Q 142.173 83.512 142.227 83.512 Q 142.292 83.512 142.332 83.545 Q 142.375 83.577 142.423 83.641 L 142.861 84.352 Q 142.541 84.618 142.127 84.755 Q 141.713 84.890 141.269 84.890 Z M 147.561 81.061 Q 147.561 80.776 147.480 80.525 Q 147.400 80.273 147.239 80.084 Q 147.080 79.894 146.834 79.785 Q 146.590 79.675 146.265 79.675 Q 145.630 79.675 145.266 80.036 Q 144.903 80.397 144.801 81.061 L 147.561 81.061 Z M 144.772 81.943 Q 144.809 82.409 144.938 82.750 Q 145.068 83.090 145.280 83.312 Q 145.495 83.534 145.787 83.645 Q 146.081 83.754 146.437 83.754 Q 146.792 83.754 147.049 83.671 Q 147.306 83.588 147.498 83.488 Q 147.691 83.386 147.835 83.305 Q 147.981 83.221 148.116 83.221 Q 148.301 83.221 148.390 83.357 L 148.810 83.889 Q 148.567 84.174 148.264 84.366 Q 147.963 84.559 147.633 84.675 Q 147.306 84.790 146.966 84.836 Q 146.625 84.884 146.305 84.884 Q 145.673 84.884 145.127 84.675 Q 144.583 84.465 144.180 84.054 Q 143.778 83.641 143.547 83.035 Q 143.316 82.428 143.316 81.629 Q 143.316 81.007 143.518 80.460 Q 143.719 79.912 144.095 79.507 Q 144.470 79.102 145.012 78.865 Q 145.554 78.629 146.235 78.629 Q 146.808 78.629 147.293 78.812 Q 147.779 78.995 148.129 79.348 Q 148.479 79.700 148.677 80.212 Q 148.875 80.722 148.875 81.381 Q 148.875 81.712 148.802 81.829 Q 148.732 81.943 148.531 81.943 L 144.772 81.943 Z M 149.969 84.796 L 149.969 78.723 L 150.864 78.723 Q 151.147 78.723 151.236 78.989 L 151.330 79.439 Q 151.491 79.261 151.665 79.113 Q 151.841 78.965 152.039 78.860 Q 152.237 78.752 152.464 78.691 Q 152.692 78.629 152.966 78.629 Q 153.539 78.629 153.909 78.939 Q 154.279 79.250 154.462 79.764 Q 154.604 79.463 154.817 79.246 Q 155.030 79.030 155.285 78.895 Q 155.540 78.758 155.827 78.693 Q 156.114 78.629 156.404 78.629 Q 156.907 78.629 157.298 78.782 Q 157.688 78.936 157.954 79.232 Q 158.221 79.528 158.359 79.955 Q 158.500 80.380 158.500 80.930 L 158.500 84.796 L 157.037 84.796 L 157.037 80.930 Q 157.037 80.351 156.782 80.058 Q 156.528 79.764 156.036 79.764 Q 155.812 79.764 155.620 79.842 Q 155.428 79.918 155.281 80.064 Q 155.137 80.208 155.054 80.428 Q 154.971 80.647 154.971 80.930 L 154.971 84.796 L 153.504 84.796 L 153.504 80.930 Q 153.504 80.321 153.258 80.044 Q 153.012 79.764 152.538 79.764 Q 152.218 79.764 151.943 79.922 Q 151.669 80.079 151.432 80.351 L 151.432 84.796 L 149.969 84.796 Z"/>
  </g>
</svg>
